<svg width="113" height="114" xmlns="http://www.w3.org/2000/svg" xmlns:xlink="http://www.w3.org/1999/xlink" xml:space="preserve" overflow="hidden"><g transform="translate(-1006 -333)"><path d="M60.3836 72.4923 61.3735 74.8465 69.6916 74.8465 88.1652 57.4598C88.8504 56.8233 89.757 56.4796 90.6918 56.5018 91.6285 56.5273 92.5159 56.9268 93.1563 57.6109L93.9632 58.468 71.5584 79.5548 63.353 79.5548 64.343 81.909 72.4917 81.909 97.2898 58.5691 94.8629 55.9893C94.2713 55.3496 93.5414 54.8536 92.7289 54.5392 90.6086 53.7224 88.208 54.1914 86.5509 55.746L68.7583 72.4923Z" stroke="#FFFFFF" stroke-width="1.17708" fill="#FFFFFF" transform="matrix(1 0 0 1.00885 1006 333)"/><path d="M15.3021 74.8465 53.7118 74.8465 52.722 72.4923 15.3021 72.4923C12.0517 72.4923 9.41667 75.1273 9.41667 78.3777L9.41667 81.909 56.6814 81.909 55.6916 79.5548 11.7708 79.5548 11.7708 78.3777C11.7708 76.4276 13.3518 74.8465 15.3021 74.8465Z" stroke="#FFFFFF" stroke-width="1.17708" fill="#FFFFFF" transform="matrix(1 0 0 1.00885 1006 333)"/><path d="M9.41667 84.2627 9.41667 86.6169 19.549 86.6169 16.7193 98.875 19.1358 98.875 21.9656 86.6169 58.6611 86.6169 57.6712 84.2627 9.41667 84.2627Z" stroke="#FFFFFF" stroke-width="1.17708" fill="#FFFFFF" transform="matrix(1 0 0 1.00885 1006 333)"/><path d="M107.115 84.2632 103.99 84.2632 89.321 72.737 96.1518 66.2857 94.5357 64.5741 73.6884 84.2632 65.3327 84.2632 66.3225 86.6173 94.5659 86.6173 97.3951 98.875 99.8117 98.875 96.9826 86.6173 107.115 86.6173ZM77.1167 84.2632 87.5904 74.3714 100.153 84.2422C100.168 84.254 100.165 84.2632 100.146 84.2632Z" stroke="#FFFFFF" stroke-width="1.17708" fill="#FFFFFF" transform="matrix(1 0 0 1.00885 1006 333)"/><path d="M44.9594 10.6154C40.8233 10.7918 36.7471 11.6689 32.9045 13.2093L31.6732 10.2817C31.4212 9.68243 30.7311 9.40093 30.1317 9.65297 29.5324 9.905 29.251 10.5951 29.503 11.1944L30.7336 14.1196C26.8993 15.793 23.3799 18.111 20.3282 20.9728 10.3788 30.4685 6.35743 44.775 11.0534 57.8083 12.4786 55.7085 14.5331 54.1149 16.9214 53.2567 18.6496 52.4856 20.5108 52.056 22.4021 51.9918 23.0673 51.9787 23.7299 52.0768 24.3627 52.282 25.131 50.639 27.3967 48.9221 30.2649 47.6466 31.9931 46.8753 33.8542 46.4457 35.7457 46.3814 36.4108 46.3684 37.0735 46.4664 37.7063 46.6717 38.2563 45.6906 39.0135 44.8412 39.9254 44.1828 40.67 43.6068 41.4877 43.1321 42.3571 42.771L42.7155 42.6202 68.3484 103.583 70.9027 103.583 44.886 41.7076 45.1082 41.6134C46.2103 41.1429 47.3824 40.8573 48.5774 40.7679 48.8238 40.7509 49.0626 40.7423 49.2919 40.7423 49.8977 40.7292 50.5021 40.8083 51.0841 40.9769 51.8524 39.3338 54.1181 37.6169 56.9864 36.3414 58.7149 35.5704 60.5762 35.141 62.4678 35.0771 63.1329 35.064 63.7956 35.1621 64.4284 35.3672 65.1965 33.7243 67.4623 32.0074 70.3306 30.7319 72.0869 29.9688 73.9739 29.5515 75.8882 29.5029 76.4952 29.4925 77.1008 29.5666 77.6875 29.7228 71.9114 17.6625 59.5016 10.5946 46.2332 10.5938ZM46.2331 12.9479C57.2309 12.7506 67.5702 18.1744 73.6592 27.3349 72.1864 27.5792 70.7479 27.9974 69.3738 28.5806 67.4893 29.3902 65.7461 30.4954 64.2099 31.8543 59.3337 22.2566 51.4775 15.228 43.3598 13.0999 43.3244 13.0906 43.3251 13.0803 43.3617 13.077 43.9226 13.0264 44.4822 12.9872 45.039 12.9683ZM62.0296 32.7501C59.9599 32.8685 57.928 33.3565 56.0303 34.191 54.1641 34.9946 52.4359 36.0869 50.9093 37.428 46.1009 26.7218 40.6412 18.2194 36.444 14.9588 37.765 14.7538 39.1081 14.7346 40.4343 14.9019 48.6505 15.9542 56.9684 22.886 62.0291 32.7501ZM16.009 51.0865C14.6529 51.6502 13.3675 52.3709 12.1792 53.2337 9.89175 42.0406 13.5947 30.4636 21.9533 22.6757 22.4075 22.2422 22.9036 21.84 23.3912 21.4323 23.4185 21.4095 23.4265 21.416 23.4087 21.4468 19.2157 28.7546 18.7356 39.3664 22.2045 49.6497 20.0676 49.7362 17.9659 50.2236 16.009 51.0865ZM29.3084 45.4953C27.5026 46.276 25.8242 47.3236 24.3294 48.6028 20.8512 38.0598 21.7272 27.2653 26.7114 20.6717 27.513 19.6139 28.4579 18.6727 29.519 17.8754 28.9148 23.1662 31.1855 33.0618 35.4927 44.0433 33.359 44.1391 31.2618 44.6315 29.3084 45.4953ZM38.3013 42.4662C38.0611 42.6594 37.8472 42.8562 37.6326 43.0529 33.5192 32.5227 31.2704 22.8365 31.8668 18.0356 32.0058 16.916 32.3288 16.1958 32.837 15.9826 33.283 15.7969 34.0244 16.0671 34.9222 16.7511 38.7804 19.6899 44.1325 28.0906 48.7669 38.4048 48.6913 38.408 48.62 38.4071 48.5433 38.4116 46.9895 38.5212 45.4654 38.8931 44.0359 39.5115L41.6173 40.5284C40.427 41.0169 39.3108 41.6691 38.3009 42.4662Z" stroke="#FFFFFF" stroke-width="1.17708" fill="#FFFFFF" transform="matrix(1 0 0 1.00885 1006 333)"/></g></svg>