<svg width="136" height="136" xmlns="http://www.w3.org/2000/svg" xmlns:xlink="http://www.w3.org/1999/xlink" xml:space="preserve" overflow="hidden"><g transform="translate(-744 -462)"><path d="M784.916 504.925C785.814 504.936 786.84 504.935 787.938 504.925 788.176 517.433 798.51 527.38 811.018 527.141 823.255 526.908 833.094 516.996 833.237 504.758 833.649 503.361 836.273 493.82 833.121 487.786 831.092 483.53 826.721 480.893 822.01 481.081 819.694 479.248 809.983 472.7 796.327 479.147 785.136 484.427 784.811 496.006 784.826 497.744L783.55 503.191C783.372 503.953 783.845 504.715 784.607 504.893 784.707 504.917 784.81 504.93 784.913 504.931ZM810.583 524.333C799.77 524.318 790.958 515.649 790.767 504.837 796.064 504.618 802.313 503.931 806.244 502.073 811.388 499.645 817.889 494.175 819.935 492.399 821.899 493.304 823.637 494.634 825.025 496.292 826.185 497.71 827.189 499.248 828.02 500.88 828.683 502.063 829.436 503.401 830.397 504.884 830.181 515.677 821.378 524.318 810.583 524.333ZM787.625 498.207C787.653 498.085 787.666 497.96 787.662 497.835 787.648 497.373 787.404 486.484 797.537 481.7 800.831 480.072 804.447 479.201 808.121 479.15 812.671 479.09 817.092 480.657 820.588 483.569 820.91 483.873 821.356 484.01 821.793 483.94 825.526 483.605 829.062 485.669 830.605 489.084 832.373 492.468 831.863 497.537 831.243 500.827 830.976 500.362 830.727 499.917 830.487 499.491 829.565 497.686 828.448 495.986 827.158 494.422 825.291 492.094 822.793 490.353 819.962 489.408 819.51 489.3 819.033 489.42 818.687 489.73 818.607 489.801 810.726 496.827 805.041 499.505 800.427 501.682 791.674 502.055 786.722 502.086Z" stroke="#FFFFFF" stroke-width="1.34321" fill="#FFFFFF"/><path d="M852.422 546.327C845.919 541.321 838.47 537.685 830.523 535.637 828.693 535.089 826.849 534.615 825.046 534.23L824.328 534.076 823.788 534.576C818.015 539.917 814.102 539.917 812 539.917 809.898 539.917 805.952 539.917 800.208 534.647L799.671 534.154 798.962 534.304C797.227 534.669 795.394 535.116 793.498 535.633 785.647 537.934 778.242 541.546 771.595 546.317 768.548 548.705 766.738 552.338 766.667 556.208L766.667 578.167 769.5 578.167 769.5 556.208C769.562 553.221 770.96 550.418 773.308 548.57 779.669 544.017 786.751 540.568 794.258 538.37 795.83 537.945 797.374 537.559 798.841 537.236 804.35 542.08 808.577 542.75 812 542.75 815.423 542.75 819.627 542.071 825.161 537.156 826.664 537.496 828.193 537.896 829.727 538.357 837.313 540.302 844.427 543.763 850.64 548.53 853.015 550.379 854.433 553.199 854.5 556.208L854.5 578.167 857.333 578.167 857.333 556.208C857.265 552.344 855.461 548.715 852.422 546.327Z" stroke="#FFFFFF" stroke-width="1.34321" fill="#FFFFFF"/></g></svg>