<svg width="114" height="113" xmlns="http://www.w3.org/2000/svg" xmlns:xlink="http://www.w3.org/1999/xlink" xml:space="preserve" overflow="hidden"><g transform="translate(-278 -407)"><path d="M27.0729 77.6875 27.0729 103.583 29.4271 103.583 29.4271 77.6875 83.5729 77.6875 83.5729 103.583 85.9271 103.583 85.9271 77.6875 101.229 77.6875C101.879 77.6875 102.406 77.1605 102.406 76.5104 102.406 75.8603 101.879 75.3333 101.229 75.3333L100.052 75.3333 100.052 68.2708 102.406 68.2708 102.406 18.8333 85.9271 18.8333 85.9271 12.9479 88.2812 12.9479C88.9314 12.9479 89.4583 12.4209 89.4583 11.7708 89.4583 11.1207 88.9314 10.5938 88.2812 10.5938L81.2188 10.5938C80.5686 10.5938 80.0417 11.1207 80.0417 11.7708 80.0417 12.4209 80.5686 12.9479 81.2188 12.9479L83.5729 12.9479 83.5729 18.8333 57.6771 18.8333 57.6771 12.9479 60.0313 12.9479C60.6814 12.9479 61.2083 12.4209 61.2083 11.7708 61.2083 11.1207 60.6814 10.5938 60.0313 10.5938L52.9688 10.5938C52.3186 10.5938 51.7917 11.1207 51.7917 11.7708 51.7917 12.4209 52.3186 12.9479 52.9688 12.9479L55.3229 12.9479 55.3229 18.8333 29.4271 18.8333 29.4271 12.9479 31.7813 12.9479C32.4314 12.9479 32.9583 12.4209 32.9583 11.7708 32.9583 11.1207 32.4314 10.5938 31.7813 10.5938L24.7188 10.5938C24.0686 10.5938 23.5417 11.1207 23.5417 11.7708 23.5417 12.4209 24.0686 12.9479 24.7188 12.9479L27.0729 12.9479 27.0729 18.8333 10.5938 18.8333 10.5938 68.2708 12.9479 68.2708 12.9479 75.3333 11.7708 75.3333C11.1207 75.3333 10.5938 75.8603 10.5938 76.5104 10.5938 77.1605 11.1207 77.6875 11.7708 77.6875ZM19.3206 75.3333 26.3831 68.2708 27.0729 68.2708 27.0729 75.3333ZM51.3044 68.2708 44.2419 75.3333 43.5521 75.3333 43.5521 68.2708ZM65.4294 68.2708 58.3669 75.3333 57.6771 75.3333 57.6771 68.2708ZM79.5544 68.2708 72.4919 75.3333 71.8021 75.3333 71.8021 68.2708ZM85.9271 75.3333 85.9271 68.2708 93.6794 68.2708 86.6169 75.3333ZM83.5729 68.2708 83.5729 75.3333 75.8206 75.3333 82.8831 68.2708ZM69.4479 68.2708 69.4479 75.3333 61.6956 75.3333 68.7581 68.2708ZM55.3229 68.2708 55.3229 75.3333 47.5706 75.3333 54.6331 68.2708ZM41.1979 68.2708 41.1979 75.3333 33.4456 75.3333 40.5081 68.2708ZM30.1169 75.3333 29.4271 75.3333 29.4271 68.2708 37.1794 68.2708ZM97.6979 75.3333 89.9456 75.3333 97.0081 68.2708 97.6979 68.2708ZM12.9479 21.1875 100.052 21.1875 100.052 65.9167 12.9479 65.9167ZM15.3021 68.2708 23.0544 68.2708 15.9919 75.3333 15.3021 75.3333Z" stroke="#FFFFFF" stroke-width="1.17708" fill="#FFFFFF" transform="matrix(1.00885 0 0 1 278 407)"/></g></svg>