<svg width="113" height="114" xmlns="http://www.w3.org/2000/svg" xmlns:xlink="http://www.w3.org/1999/xlink" xml:space="preserve" overflow="hidden"><g transform="translate(-453 -317)"><path d="M88.9698 61.2083 76.5104 61.2083 76.5104 63.5625 88.2812 63.5625 88.2812 82.3958 76.5104 82.3958 76.5104 84.75 88.971 84.75 96.0335 91.8125 103.583 91.8125 103.583 54.1458 96.0335 54.127ZM101.229 56.5 101.229 89.4583 97.0081 89.4583 90.6354 83.0856 90.6354 62.8727 97.0081 56.4847Z" stroke="#FFFFFF" stroke-width="1.17708" fill="#FFFFFF" transform="matrix(1 0 0 1.00885 453 317)"/><path d="M20.0104 57.6771 20.0104 58.8706 15.7859 58.8706 13.4317 56.5165 7.0625 56.5165 7.0625 69.4644 13.4364 69.4644 15.7906 67.1102 20.0104 67.1102 20.0104 88.2812C20.0104 90.8815 22.1185 92.9896 24.7188 92.9896L71.8021 92.9896C74.4024 92.9896 76.5104 90.8815 76.5104 88.2812L76.5104 57.6771C76.5071 55.1531 74.5103 53.0825 71.9881 52.9876 79.8091 48.3333 82.3762 38.2199 77.7219 30.3989 73.0676 22.5779 62.9542 20.0108 55.1332 24.6651 47.3122 29.3194 44.7451 39.4328 49.3994 47.2538 50.7969 49.6021 52.7564 51.566 55.1016 52.9688L39.0556 52.9688C46.8513 48.2897 49.3778 38.1769 44.6988 30.3812 40.0198 22.5855 29.907 20.059 22.1113 24.7381 14.3156 29.4172 11.7891 39.5299 16.4681 47.3256 18.0002 49.8782 20.1959 51.9676 22.8213 53.3713 21.1142 54.123 20.0117 55.8118 20.0104 57.6771ZM20.0104 64.7584 14.8112 64.7584 12.4571 67.1126 9.41667 67.1126 9.41667 58.873 12.4618 58.873 14.8159 61.2272 20.0104 61.2272ZM49.4375 38.8438C49.4375 31.0427 55.7615 24.7188 63.5625 24.7188 71.3635 24.7188 77.6875 31.0427 77.6875 38.8438 77.6875 46.6448 71.3635 52.9688 63.5625 52.9688 55.765 52.9603 49.446 46.6412 49.4375 38.8438ZM16.4792 38.8438C16.4792 31.0427 22.8032 24.7188 30.6042 24.7188 38.4052 24.7188 44.7292 31.0427 44.7292 38.8438 44.7292 46.6448 38.4052 52.9688 30.6042 52.9688 22.8067 52.9603 16.4876 46.6412 16.4792 38.8438ZM22.3646 57.6771C22.3646 56.3769 23.4185 55.3229 24.7188 55.3229L71.8021 55.3229C73.1023 55.3229 74.1562 56.3769 74.1562 57.6771L74.1562 88.2812C74.1562 89.5815 73.1023 90.6354 71.8021 90.6354L24.7188 90.6354C23.4185 90.6354 22.3646 89.5815 22.3646 88.2812Z" stroke="#FFFFFF" stroke-width="1.17708" fill="#FFFFFF" transform="matrix(1 0 0 1.00885 453 317)"/><path d="M69.4432 83.5729C69.4432 84.8731 68.3892 85.9271 67.089 85.9271 65.7889 85.9271 64.7349 84.8731 64.7349 83.5729 64.7349 82.2728 65.7889 81.2188 67.089 81.2188 68.3892 81.2188 69.4432 82.2728 69.4432 83.5729Z" stroke="#FFFFFF" stroke-width="1.17708" fill="#FFFFFF" transform="matrix(1 0 0 1.00885 453 317)"/><path d="M32.9536 34.1354C32.9536 35.4356 31.8996 36.4896 30.5995 36.4896 29.2993 36.4896 28.2453 35.4356 28.2453 34.1354 28.2453 32.8352 29.2993 31.7813 30.5995 31.7813 31.8996 31.7813 32.9536 32.8352 32.9536 34.1354Z" stroke="#FFFFFF" stroke-width="1.17708" fill="#FFFFFF" transform="matrix(1 0 0 1.00885 453 317)"/><path d="M28.2453 38.8438C28.2453 40.1439 27.1913 41.1979 25.8911 41.1979 24.591 41.1979 23.537 40.1439 23.537 38.8438 23.537 37.5436 24.591 36.4896 25.8911 36.4896 27.1913 36.4896 28.2453 37.5436 28.2453 38.8438Z" stroke="#FFFFFF" stroke-width="1.17708" fill="#FFFFFF" transform="matrix(1 0 0 1.00885 453 317)"/><path d="M37.662 38.8438C37.662 40.1439 36.608 41.1979 35.3078 41.1979 34.0076 41.1979 32.9536 40.1439 32.9536 38.8438 32.9536 37.5436 34.0076 36.4896 35.3078 36.4896 36.608 36.4896 37.662 37.5436 37.662 38.8438Z" stroke="#FFFFFF" stroke-width="1.17708" fill="#FFFFFF" transform="matrix(1 0 0 1.00885 453 317)"/><path d="M32.9536 43.5521C32.9536 44.8523 31.8996 45.9062 30.5995 45.9062 29.2993 45.9062 28.2453 44.8523 28.2453 43.5521 28.2453 42.2519 29.2993 41.1979 30.5995 41.1979 31.8996 41.1979 32.9536 42.2519 32.9536 43.5521Z" stroke="#FFFFFF" stroke-width="1.17708" fill="#FFFFFF" transform="matrix(1 0 0 1.00885 453 317)"/><path d="M65.912 34.1354C65.912 35.4356 64.858 36.4896 63.5578 36.4896 62.2576 36.4896 61.2036 35.4356 61.2036 34.1354 61.2036 32.8352 62.2576 31.7813 63.5578 31.7813 64.858 31.7813 65.912 32.8352 65.912 34.1354Z" stroke="#FFFFFF" stroke-width="1.17708" fill="#FFFFFF" transform="matrix(1 0 0 1.00885 453 317)"/><path d="M61.2036 38.8438C61.2036 40.1439 60.1496 41.1979 58.8495 41.1979 57.5493 41.1979 56.4953 40.1439 56.4953 38.8438 56.4953 37.5436 57.5493 36.4896 58.8495 36.4896 60.1496 36.4896 61.2036 37.5436 61.2036 38.8438Z" stroke="#FFFFFF" stroke-width="1.17708" fill="#FFFFFF" transform="matrix(1 0 0 1.00885 453 317)"/><path d="M65.912 43.5521C65.912 44.8523 64.858 45.9062 63.5578 45.9062 62.2576 45.9062 61.2036 44.8523 61.2036 43.5521 61.2036 42.2519 62.2576 41.1979 63.5578 41.1979 64.858 41.1979 65.912 42.2519 65.912 43.5521Z" stroke="#FFFFFF" stroke-width="1.17708" fill="#FFFFFF" transform="matrix(1 0 0 1.00885 453 317)"/><path d="M70.6203 38.8438C70.6203 40.1439 69.5663 41.1979 68.2661 41.1979 66.966 41.1979 65.912 40.1439 65.912 38.8438 65.912 37.5436 66.966 36.4896 68.2661 36.4896 69.5663 36.4896 70.6203 37.5436 70.6203 38.8438Z" stroke="#FFFFFF" stroke-width="1.17708" fill="#FFFFFF" transform="matrix(1 0 0 1.00885 453 317)"/></g></svg>