<svg width="113" height="113" xmlns="http://www.w3.org/2000/svg" xmlns:xlink="http://www.w3.org/1999/xlink" xml:space="preserve" overflow="hidden"><g transform="translate(-627 -360)"><path d="M732.938 390.604 716.458 390.604 716.458 388.25C716.458 387.6 715.931 387.073 715.281 387.073 714.631 387.073 714.104 387.6 714.104 388.25L714.104 390.604 697.625 390.604C696.975 390.604 696.448 391.131 696.448 391.781 696.448 392.431 696.975 392.958 697.625 392.958L714.104 392.958 714.104 396.49 712.927 396.49C711.627 396.49 710.573 397.544 710.573 398.844L710.573 400.233 705.619 399.432C690.967 397.071 676.033 397.071 661.381 399.432L656.427 400.233 656.427 398.844C656.427 397.544 655.373 396.49 654.073 396.49L652.896 396.49 652.896 392.958 669.375 392.958C670.025 392.958 670.552 392.431 670.552 391.781 670.552 391.131 670.025 390.604 669.375 390.604L652.896 390.604 652.896 388.25C652.896 387.6 652.369 387.073 651.719 387.073 651.069 387.073 650.542 387.6 650.542 388.25L650.542 390.604 634.062 390.604C633.412 390.604 632.885 391.131 632.885 391.781 632.885 392.431 633.412 392.958 634.062 392.958L650.542 392.958 650.542 396.49 649.365 396.49C648.064 396.49 647.01 397.544 647.01 398.844L647.01 401.749 644.248 402.194C641.478 402.624 639.581 405.218 640.011 407.988 640.358 410.225 642.144 411.961 644.39 412.245L651.523 413.187C654.914 413.635 658.252 414.42 661.489 415.528L662.943 416.024C664.651 416.612 666.326 417.288 667.963 418.05L661.135 435.107 661.135 447.104 663.49 447.104 663.49 435.559 670.081 419.09C670.232 419.168 670.386 419.24 670.537 419.325L671.478 419.829C673.184 420.735 675.086 421.208 677.017 421.208L682.323 421.208 682.323 424.74 676.438 424.74C674.487 424.74 672.906 426.321 672.906 428.271L672.906 437.688C672.906 439.638 674.487 441.219 676.438 441.219L690.562 441.219C692.513 441.219 694.094 439.638 694.094 437.688L694.094 428.271C694.094 426.321 692.513 424.74 690.562 424.74L684.677 424.74 684.677 421.208 689.983 421.208C691.913 421.207 693.812 420.732 695.516 419.825L696.457 419.32C696.607 419.241 696.762 419.168 696.913 419.085L703.51 435.559 703.51 447.104 705.865 447.104 705.865 435.107 699.037 418.05C700.676 417.289 702.353 416.615 704.061 416.029L705.517 415.532C708.751 414.426 712.088 413.642 715.477 413.195L722.61 412.253C725.391 411.902 727.361 409.363 727.009 406.582 726.726 404.336 724.989 402.549 722.752 402.202L719.99 401.749 719.99 398.844C719.99 397.544 718.936 396.49 717.635 396.49L716.458 396.49 716.458 392.958 732.938 392.958C733.588 392.958 734.115 392.431 734.115 391.781 734.115 391.131 733.588 390.604 732.938 390.604ZM690.562 427.094C691.213 427.094 691.74 427.621 691.74 428.271L691.74 437.688C691.74 438.338 691.213 438.865 690.562 438.865L676.438 438.865C675.787 438.865 675.26 438.338 675.26 437.688L675.26 428.271C675.26 427.621 675.787 427.094 676.438 427.094L690.562 427.094ZM649.365 398.844 654.073 398.844 654.073 400.609 649.365 401.367ZM724.698 407.246C724.718 408.624 723.673 409.785 722.3 409.908L715.167 410.85C711.625 411.32 708.137 412.138 704.756 413.294L703.301 413.79C700.566 414.725 697.911 415.878 695.361 417.238L694.42 417.743C693.054 418.471 691.531 418.853 689.983 418.854L677.017 418.854C675.471 418.853 673.95 418.473 672.586 417.748L671.644 417.245C669.094 415.885 666.438 414.731 663.703 413.796L662.249 413.299C658.867 412.144 655.379 411.326 651.836 410.856L644.703 409.914C643.211 409.735 642.147 408.38 642.326 406.887 642.473 405.671 643.414 404.702 644.626 404.521L661.759 401.763C676.162 399.44 690.845 399.44 705.248 401.763L722.378 404.517C723.746 404.679 724.758 405.869 724.698 407.246ZM717.635 398.844 717.635 401.37 712.927 400.609 712.927 398.844Z" stroke="#FFFFFF" stroke-width="1.17708" fill="#FFFFFF"/><path d="M679.38 432.979C679.38 435.254 681.225 437.099 683.5 437.099 685.775 437.099 687.62 435.254 687.62 432.979 687.62 430.704 685.775 428.859 683.5 428.859 681.225 428.859 679.38 430.704 679.38 432.979ZM685.266 432.979C685.266 433.954 684.475 434.745 683.5 434.745 682.525 434.745 681.734 433.954 681.734 432.979 681.734 432.004 682.525 431.214 683.5 431.214 684.475 431.214 685.266 432.004 685.266 432.979Z" stroke="#FFFFFF" stroke-width="1.17708" fill="#FFFFFF"/></g></svg>