<svg width="114" height="113" xmlns="http://www.w3.org/2000/svg" xmlns:xlink="http://www.w3.org/1999/xlink" xml:space="preserve" overflow="hidden"><g transform="translate(-839 -438)"><path d="M55.9585 46.4948C50.1077 46.4948 45.3648 51.2377 45.3648 57.0885 45.3648 62.9394 50.1077 67.6823 55.9585 67.6823 61.8094 67.6823 66.5523 62.9394 66.5523 57.0885 66.5523 51.2377 61.8094 46.4948 55.9585 46.4948ZM55.9585 65.3281C51.4079 65.3281 47.719 61.6391 47.719 57.0885 47.719 52.5379 51.4079 48.849 55.9585 48.849 60.5091 48.849 64.1981 52.5379 64.1981 57.0885 64.1929 61.637 60.507 65.323 55.9585 65.3281Z" stroke="#FFFFFF" stroke-width="1.17708" fill="#FFFFFF" transform="matrix(1.00885 0 0 1 839 438)"/><path d="M17.156 46.4948C11.3052 46.4948 6.56224 51.2377 6.56224 57.0885 6.56224 62.9394 11.3052 67.6823 17.156 67.6823 23.0068 67.6823 27.7497 62.9394 27.7497 57.0885 27.7497 51.2377 23.0068 46.4948 17.156 46.4948ZM17.156 65.3281C12.6054 65.3281 8.91641 61.6391 8.91641 57.0885 8.91641 52.5379 12.6054 48.849 17.156 48.849 21.7066 48.849 25.3956 52.5379 25.3956 57.0885 25.3904 61.637 21.7045 65.323 17.156 65.3281Z" stroke="#FFFFFF" stroke-width="1.17708" fill="#FFFFFF" transform="matrix(1.00885 0 0 1 839 438)"/><path d="M94.7623 46.4948C88.9115 46.4948 84.1685 51.2377 84.1685 57.0885 84.1685 62.9394 88.9115 67.6823 94.7623 67.6823 100.613 67.6823 105.356 62.9394 105.356 57.0885 105.356 51.2377 100.613 46.4948 94.7623 46.4948ZM94.7623 65.3281C90.2117 65.3281 86.5227 61.6391 86.5227 57.0885 86.5227 52.5379 90.2117 48.849 94.7623 48.849 99.3129 48.849 103.002 52.5379 103.002 57.0885 102.997 61.637 99.3108 65.323 94.7623 65.3281Z" stroke="#FFFFFF" stroke-width="1.17708" fill="#FFFFFF" transform="matrix(1.00885 0 0 1 839 438)"/></g></svg>