<svg width="113" height="114" xmlns="http://www.w3.org/2000/svg" xmlns:xlink="http://www.w3.org/1999/xlink" xml:space="preserve" overflow="hidden"><g transform="translate(-793 -353)"><path d="M29.7802 63.2094C33.076 59.7958 36.8427 56.6177 40.0208 56.6177 37.3135 54.2635 34.0177 52.7333 30.4865 52.1448 24.8365 54.2635 20.3635 62.2677 20.3635 62.2677 20.0104 65.799 20.7167 69.3302 22.2469 72.3906 23.6594 72.0375 25.1896 71.9198 26.7198 71.9198 29.3094 71.9198 31.899 72.2729 34.3708 72.9792 30.1333 76.275 27.0729 80.6302 25.425 85.6917 25.6604 85.6917 33.6646 88.2812 33.6646 88.2812 33.6646 88.2812 36.725 79.924 44.4938 76.8635 44.4938 76.8635 47.3188 70.7427 45.2 67.3292 40.9625 65.2104 34.8417 63.9156 29.7802 63.2094ZM22.6 63.0917C23.8948 60.9729 27.3083 56.2646 30.7219 54.6167 32.1344 54.9698 33.4292 55.4406 34.724 56.0292 32.2521 57.5594 30.0156 59.4427 28.0146 61.6792L26.6021 63.0917C26.0135 63.5625 25.425 64.151 24.9542 64.7396L24.8365 64.975C24.1302 65.9167 23.5417 66.8583 22.9531 67.9177 22.9531 67.9177 22.9531 67.9177 22.9531 67.9177 22.9531 67.9177 22.9531 67.9177 22.9531 67.9177 22.6 66.2698 22.4823 64.6219 22.6 63.0917L22.6 63.0917ZM26.6021 69.6833C26.0135 69.6833 25.425 69.6833 24.7188 69.801 24.7188 69.801 24.7188 69.801 24.7188 69.801 24.7188 69.801 24.7188 69.801 24.7188 69.801 25.425 68.1531 26.3667 66.6229 27.6615 65.3281L29.4271 65.5635C33.4292 66.0344 37.3135 66.976 41.0802 68.2708 41.0802 68.2708 41.0802 68.2708 41.0802 68.2708 41.0802 68.2708 41.0802 68.2708 41.0802 68.2708 39.55 69.2125 38.0198 70.1542 36.4896 71.2135L36.4896 71.2135 34.8417 70.8604C32.1344 70.0365 29.4271 69.6833 26.6021 69.6833L26.6021 69.6833ZM42.6104 75.0979C38.1375 77.3344 34.6063 80.9833 32.3698 85.4563 30.7219 84.8677 29.4271 84.5146 28.4854 84.1615 30.1333 80.5125 32.6052 77.3344 35.7833 74.8625L39.4323 71.9198C40.7271 70.9781 42.0219 70.2719 43.4344 69.5656 43.4344 69.5656 43.4344 69.5656 43.4344 69.5656 43.4344 69.5656 43.4344 69.5656 43.4344 69.5656 43.5521 71.449 43.3167 73.2146 42.6104 74.9802 42.6104 75.0979 42.6104 75.0979 42.6104 75.0979Z" stroke="#FFFFFF" stroke-width="1.17708" fill="#FFFFFF" transform="matrix(1 0 0 1.00885 793 353)"/><path d="M50.2615 61.6792 48.1427 55.9115 42.375 53.7927 44.4938 59.5604Z" stroke="#FFFFFF" stroke-width="1.17708" fill="#FFFFFF" transform="matrix(1 0 0 1.00885 793 353)"/><path d="M58.0302 71.6844 52.2625 73.8031 50.1437 79.5708 55.9115 77.4521Z" stroke="#FFFFFF" stroke-width="1.17708" fill="#FFFFFF" transform="matrix(1 0 0 1.00885 793 353)"/><path d="M40.1385 92.8719 42.7281 98.4042 45.2 92.8719 42.7281 87.2219Z" stroke="#FFFFFF" stroke-width="1.17708" fill="#FFFFFF" transform="matrix(1 0 0 1.00885 793 353)"/><path d="M88.399 87.6927 92.401 92.2833 93.225 86.2802 89.2229 81.5719Z" stroke="#FFFFFF" stroke-width="1.17708" fill="#FFFFFF" transform="matrix(1 0 0 1.00885 793 353)"/><path d="M40.8448 45.0823C45.9062 43.0812 50.85 40.7271 55.676 38.0198 59.2073 35.901 64.3865 32.9583 62.6208 28.6031 57.0885 15.0667 41.6688 8.71042 28.1323 14.2427 14.5958 19.775 8.23958 35.3125 13.7719 48.849 14.7135 50.9677 16.5969 51.674 18.8333 51.674 21.0698 51.5563 23.1885 51.2031 25.3073 50.4969 30.6042 49.0844 35.7833 47.201 40.8448 45.0823ZM29.074 16.4792C40.9625 11.5354 54.7344 16.8323 60.149 28.6031 55.3229 28.4854 43.7875 32.7229 36.9604 35.5479 31.5458 37.7844 26.249 40.2563 21.0698 43.199 19.0688 44.2583 17.3031 45.5531 15.6552 46.9656 11.1823 34.8417 17.1854 21.4229 29.074 16.4792ZM18.8333 49.4375C18.1271 49.4375 17.5385 49.3198 16.8323 49.0844 16.8323 49.0844 16.8323 49.0844 16.8323 49.0844 16.8323 49.0844 16.8323 49.0844 16.8323 49.0844 17.5385 47.6719 25.0719 43.0812 37.7844 37.7844 50.4969 32.4875 59.0896 30.4865 60.5021 30.9573 60.0313 32.4875 57.9125 34.0177 54.7344 35.901L54.499 36.0188C49.7906 38.6083 44.8469 40.9625 39.9031 42.9635 34.9594 45.0823 29.8979 46.8479 24.601 48.3781 22.8354 48.849 20.8344 49.3198 18.8333 49.4375Z" stroke="#FFFFFF" stroke-width="1.17708" fill="#FFFFFF" transform="matrix(1 0 0 1.00885 793 353)"/><path d="M83.8083 35.4302 83.8083 35.4302C70.2719 29.7802 54.8521 36.2542 49.2021 49.7906 47.4365 54.1458 52.7333 57.0885 56.1469 59.2073 60.9729 61.9146 65.9167 64.2688 70.9781 66.2698 76.0396 68.3885 81.2188 70.2719 86.5156 71.8021 88.6344 72.5083 90.7531 72.8615 92.9896 72.9792 95.226 72.9792 97.1094 72.2729 98.051 70.1542 103.819 56.6177 97.3448 41.0802 83.8083 35.4302ZM87.2219 69.5656C82.0427 68.0354 76.8635 66.2698 71.9198 64.151 66.976 62.15 62.0323 59.7958 57.324 57.2062L57.0885 57.0885C54.3813 55.4406 51.9094 53.7927 51.3208 52.1448 51.3208 52.1448 51.3208 52.1448 51.3208 52.1448 51.3208 52.1448 51.3208 52.1448 51.3208 52.1448 53.3219 51.9094 61.7969 54.0281 74.0385 58.9719 86.3979 64.0333 94.1667 68.8594 94.9906 70.2719 94.9906 70.2719 94.9906 70.2719 94.9906 70.2719 94.4021 70.5073 93.6958 70.625 93.1073 70.625 91.1063 70.5073 89.1052 70.1542 87.2219 69.5656ZM96.4031 68.1531C96.4031 68.2708 96.4031 68.2708 96.4031 68.1531 96.2854 68.2708 96.2854 68.2708 96.4031 68.1531 93.225 65.0927 83.5729 60.2667 74.9802 56.7354 73.0969 55.9115 57.9125 49.7906 51.9094 49.6729 51.9094 49.6729 51.9094 49.6729 51.9094 49.6729 51.9094 49.6729 51.9094 49.6729 51.9094 49.6729 57.5594 37.549 71.9198 32.3698 83.926 38.0198 95.226 43.3167 100.641 56.5 96.4031 68.1531L96.4031 68.1531Z" stroke="#FFFFFF" stroke-width="1.17708" fill="#FFFFFF" transform="matrix(1 0 0 1.00885 793 353)"/><path d="M80.9833 72.5083C81.925 74.5094 82.2781 76.7458 82.0427 78.8646 82.0427 78.9823 82.0427 79.1 81.925 79.1 81.4542 79.1 80.8656 78.9823 80.3948 78.9823L79.8063 77.6875C78.5115 74.9802 76.7458 72.5083 74.7448 70.2719 73.2146 69.6833 71.6844 69.0948 70.1542 68.3885 69.0948 67.9177 67.9177 67.4469 66.8583 66.976L66.8583 66.976C71.5667 69.6833 75.3333 73.8031 77.6875 78.7469 73.5677 78.1583 69.4479 77.2167 65.3281 76.0396 65.3281 76.0396 62.2677 76.9813 61.4438 83.3375 61.326 83.8083 61.326 84.1615 61.326 84.6323 64.8573 86.9865 68.1531 89.576 71.2135 92.401 68.9771 92.9896 66.6229 93.225 64.2688 93.225 60.7375 93.225 57.2062 92.5188 54.0281 91.1063 55.4406 95.4615 55.676 99.2281 55.2052 101.465 57.5594 102.053 59.9135 102.289 62.3854 102.289 71.8021 102.289 75.8042 97.4625 75.8042 97.4625 75.8042 97.4625 80.6302 90.9885 79.8063 88.9875 78.276 88.0458 76.8635 87.2219 75.5687 86.2802 77.099 86.6333 78.6292 87.2219 80.3948 87.9281 82.5135 87.1042 84.3969 79.4531 84.3969 79.4531 84.6323 77.4521 84.3969 75.451 83.8083 73.45 82.8667 73.0969 81.925 72.8615 80.9833 72.5083ZM74.0385 96.05C73.5677 96.5208 70.0365 100.052 62.3854 100.052 60.8552 100.052 59.325 99.9344 57.9125 99.699 57.9125 98.051 57.7948 96.5208 57.5594 94.8729 59.7958 95.4615 62.15 95.6969 64.3865 95.6969 66.8583 95.6969 69.4479 95.3438 71.8021 94.7552L75.5687 93.8135C74.9802 94.5198 74.5094 95.3438 74.0385 96.05L74.0385 96.05ZM76.9813 89.9292C76.0396 90.6354 74.9802 91.224 73.9208 91.6948L72.8615 90.7531C70.0365 88.1635 66.976 85.8094 63.7979 83.5729 63.7979 83.4552 63.7979 83.3375 63.9156 83.2198 65.5635 83.5729 67.2115 84.0438 68.7417 84.6323L74.3917 88.2812C75.0979 88.7521 75.9219 89.3406 76.9813 89.9292L76.9813 89.9292ZM79.8063 85.2208C78.6292 84.75 77.4521 84.3969 76.1573 84.0438L68.2708 82.0427C66.976 81.5719 65.6813 81.2188 64.3865 80.9833 64.6219 80.1594 65.0927 79.3354 65.6813 78.7469 69.4479 79.8063 73.45 80.6302 77.3344 81.2188L81.2188 81.6896C80.8656 82.8667 80.3948 84.0438 79.8063 85.2208Z" stroke="#FFFFFF" stroke-width="1.17708" fill="#FFFFFF" transform="matrix(1 0 0 1.00885 793 353)"/></g></svg>