<svg width="114" height="113" xmlns="http://www.w3.org/2000/svg" xmlns:xlink="http://www.w3.org/1999/xlink" xml:space="preserve" overflow="hidden"><g transform="translate(-151 -445)"><path d="M105.27 59.9818 56.5 13.6542 7.72991 59.9818 15.368 67.6187 21.1875 62.1076 21.1875 100.024 91.8125 100.052 91.8125 62.0582 97.6614 67.5905ZM89.4583 97.6979 23.5417 97.6708 23.5417 59.8782 56.5 28.6667 89.4583 59.8323ZM15.4116 64.3347 11.1034 60.0313 56.5 16.8982 101.897 60.0313 97.6155 64.3064 56.5 25.425Z" stroke="#FFFFFF" stroke-width="1.17711" fill="#FFFFFF" transform="matrix(1.00885 0 0 1 151 445)"/><path d="M48.2604 69.4479C51.5108 69.4479 54.1458 66.8129 54.1458 63.5625 54.1458 60.3121 51.5108 57.6771 48.2604 57.6771 45.01 57.6771 42.375 60.3121 42.375 63.5625 42.3789 66.8114 45.0115 69.444 48.2604 69.4479ZM48.2604 60.0313C50.2107 60.0313 51.7917 61.6122 51.7917 63.5625 51.7917 65.5128 50.2107 67.0938 48.2604 67.0938 46.3101 67.0938 44.7292 65.5128 44.7292 63.5625 44.7292 61.6122 46.3101 60.0313 48.2604 60.0313Z" stroke="#FFFFFF" stroke-width="1.17711" fill="#FFFFFF" transform="matrix(1.00885 0 0 1 151 445)"/><path d="M64.7396 74.1562C61.4892 74.1562 58.8542 76.7913 58.8542 80.0417 58.8542 83.2921 61.4892 85.9271 64.7396 85.9271 67.99 85.9271 70.625 83.2921 70.625 80.0417 70.6211 76.7928 67.9885 74.1601 64.7396 74.1562ZM64.7396 83.5729C62.7893 83.5729 61.2083 81.992 61.2083 80.0417 61.2083 78.0914 62.7893 76.5104 64.7396 76.5104 66.6899 76.5104 68.2708 78.0914 68.2708 80.0417 68.2708 81.992 66.6899 83.5729 64.7396 83.5729Z" stroke="#FFFFFF" stroke-width="1.17711" fill="#FFFFFF" transform="matrix(1.00885 0 0 1 151 445)"/><path d="M40.0289 70.9355 73.4679 70.9355 73.4679 73.3 40.0289 73.3Z" stroke="#FFFFFF" stroke-width="1.18229" fill="#FFFFFF" transform="matrix(0.710242 -0.704012 0.710242 0.704012 116.473 505.982)"/></g></svg>