<svg width="136" height="136" xmlns="http://www.w3.org/2000/svg" xmlns:xlink="http://www.w3.org/1999/xlink" xml:space="preserve" overflow="hidden"><g transform="translate(-416 -444)"><path d="M499.583 474.978 499.583 512 484 512 484 468.083 447.167 468.083 447.167 500.667 431.583 500.667 431.583 555.917 536.417 555.917 536.417 479.582ZM450 470.917 481.167 470.917 481.167 512 468.417 512 468.417 500.667 450 500.667ZM465.583 553.083 452.833 553.083 452.833 544.583 447.167 544.583 447.167 553.083 434.417 553.083 434.417 503.5 465.583 503.5 465.583 553.083ZM499.583 553.083 486.833 553.083 486.833 544.583 481.167 544.583 481.167 553.083 468.417 553.083 468.417 514.833 499.583 514.833ZM533.583 553.083 520.833 553.083 520.833 544.583 515.167 544.583 515.167 553.083 502.417 553.083 502.417 478.188 533.583 482.084Z" stroke="#FFFFFF" stroke-width="1.41672" fill="#FFFFFF"/><path d="M475.5 533.276 481.167 533.276 481.167 538.944 475.5 538.944Z" stroke="#FFFFFF" stroke-width="1.41672" fill="#FFFFFF"/><path d="M486.833 533.276 492.5 533.276 492.5 538.944 486.833 538.944Z" stroke="#FFFFFF" stroke-width="1.41672" fill="#FFFFFF"/><path d="M475.5 521.917 481.167 521.917 481.167 527.585 475.5 527.585Z" stroke="#FFFFFF" stroke-width="1.41672" fill="#FFFFFF"/><path d="M486.833 521.917 492.5 521.917 492.5 527.585 486.833 527.585Z" stroke="#FFFFFF" stroke-width="1.41672" fill="#FFFFFF"/><path d="M457.083 489.359 462.75 489.359 462.75 495.027 457.083 495.027Z" stroke="#FFFFFF" stroke-width="1.41672" fill="#FFFFFF"/><path d="M468.417 489.359 474.083 489.359 474.083 495.027 468.417 495.027Z" stroke="#FFFFFF" stroke-width="1.41672" fill="#FFFFFF"/><path d="M457.083 478 462.75 478 462.75 483.668 457.083 483.668Z" stroke="#FFFFFF" stroke-width="1.41672" fill="#FFFFFF"/><path d="M468.417 478 474.083 478 474.083 483.668 468.417 483.668Z" stroke="#FFFFFF" stroke-width="1.41672" fill="#FFFFFF"/><path d="M441.501 533.276 447.168 533.276 447.168 538.944 441.501 538.944Z" stroke="#FFFFFF" stroke-width="1.41672" fill="#FFFFFF"/><path d="M452.835 533.276 458.501 533.276 458.501 538.944 452.835 538.944Z" stroke="#FFFFFF" stroke-width="1.41672" fill="#FFFFFF"/><path d="M441.501 521.917 447.168 521.917 447.168 527.585 441.501 527.585Z" stroke="#FFFFFF" stroke-width="1.41672" fill="#FFFFFF"/><path d="M452.835 521.917 458.501 521.917 458.501 527.585 452.835 527.585Z" stroke="#FFFFFF" stroke-width="1.41672" fill="#FFFFFF"/><path d="M441.501 510.583 447.168 510.583 447.168 516.251 441.501 516.251Z" stroke="#FFFFFF" stroke-width="1.41672" fill="#FFFFFF"/><path d="M452.835 510.583 458.501 510.583 458.501 516.251 452.835 516.251Z" stroke="#FFFFFF" stroke-width="1.41672" fill="#FFFFFF"/><path d="M509.5 533.276 515.167 533.276 515.167 538.944 509.5 538.944Z" stroke="#FFFFFF" stroke-width="1.41672" fill="#FFFFFF"/><path d="M520.833 533.276 526.5 533.276 526.5 538.944 520.833 538.944Z" stroke="#FFFFFF" stroke-width="1.41672" fill="#FFFFFF"/><path d="M509.5 521.917 515.167 521.917 515.167 527.585 509.5 527.585Z" stroke="#FFFFFF" stroke-width="1.41672" fill="#FFFFFF"/><path d="M520.833 521.917 526.5 521.917 526.5 527.585 520.833 527.585Z" stroke="#FFFFFF" stroke-width="1.41672" fill="#FFFFFF"/><path d="M509.5 510.583 515.167 510.583 515.167 516.251 509.5 516.251Z" stroke="#FFFFFF" stroke-width="1.41672" fill="#FFFFFF"/><path d="M520.833 510.583 526.5 510.583 526.5 516.251 520.833 516.251Z" stroke="#FFFFFF" stroke-width="1.41672" fill="#FFFFFF"/><path d="M509.5 499.276 515.167 499.276 515.167 504.944 509.5 504.944Z" stroke="#FFFFFF" stroke-width="1.41672" fill="#FFFFFF"/><path d="M520.833 499.276 526.5 499.276 526.5 504.944 520.833 504.944Z" stroke="#FFFFFF" stroke-width="1.41672" fill="#FFFFFF"/><path d="M509.5 487.917 515.167 487.917 515.167 493.585 509.5 493.585Z" stroke="#FFFFFF" stroke-width="1.41672" fill="#FFFFFF"/><path d="M520.833 487.917 526.5 487.917 526.5 493.585 520.833 493.585Z" stroke="#FFFFFF" stroke-width="1.41672" fill="#FFFFFF"/></g></svg>